<svg xmlns="http://www.w3.org/2000/svg" xmlns:xlink="http://www.w3.org/1999/xlink" width="840" height="407.36"><rect width="840" height="407.36" rx="5" ry="5" class="a"/><svg y="0%" x="0%"><circle cx="20" cy="20" r="6" fill="#ff5f58"/><circle cx="40" cy="20" r="6" fill="#ffbd2e"/><circle cx="60" cy="20" r="6" fill="#18c132"/></svg><svg height="347.36" viewBox="0 0 80 34.736" width="800" x="15" xmlns="http://www.w3.org/2000/svg" xmlns:xlink="http://www.w3.org/1999/xlink" y="50"><style>@keyframes m{0%{transform:translateX(0)}3.2%{transform:translateX(-160px)}9%{transform:translateX(-240px)}10.9%{transform:translateX(-320px)}11.6%{transform:translateX(-400px)}13.3%{transform:translateX(-480px)}16.2%{transform:translateX(-560px)}17.1%{transform:translateX(-640px)}18.7%{transform:translateX(-720px)}19.9%{transform:translateX(-800px)}22.1%{transform:translateX(-880px)}27.8%{transform:translateX(-1120px)}33.6%{transform:translateX(-1200px)}39.3%{transform:translateX(-1280px)}39.7%{transform:translateX(-1360px)}45.5%{transform:translateX(-1440px)}51.2%{transform:translateX(-1520px)}55.8%{transform:translateX(-1600px)}61.6%{transform:translateX(-1680px)}62.2%{transform:translateX(-1760px)}62.6%{transform:translateX(-1840px)}63.9%{transform:translateX(-1920px)}64.3%{transform:translateX(-2000px)}65.5%{transform:translateX(-2080px)}65.9%{transform:translateX(-2160px)}69.3%{transform:translateX(-2240px)}74.3%{transform:translateX(-2320px)}74.9%{transform:translateX(-2400px)}75.3%{transform:translateX(-2480px)}76.5%{transform:translateX(-2560px)}76.9%{transform:translateX(-2640px)}77.8%{transform:translateX(-2720px)}78.2%{transform:translateX(-2800px)}82.7%{transform:translateX(-3040px)}88.5%{transform:translateX(-3120px)}94.2%{transform:translateX(-3200px)}to{transform:translateX(-3280px)}}.a{fill:#282d35}.g,.h,.i,.j{white-space:pre}.g{fill:#a8cc8c;font-weight:700}.h,.i,.j{fill:#b9c0cb}.i,.j{fill:#71bef2}.j{fill:#dbab79}.o{fill:#b9c0cb}.p{fill:#282d35;white-space:pre}</style><g font-family="Monaco,Consolas,Menlo,'Bitstream Vera Sans Mono','Powerline Symbols',monospace" font-size="1.67"><defs><symbol id="1"><text y="1.67" style="white-space:pre" fill="#66c2cd" font-weight="700">some/nice/path</text></symbol><symbol id="2"><text y="1.67" class="g">❯</text></symbol><symbol id="3"><text y="1.67" class="g">❯</text><text x="2.004" y="1.67" class="h">ecs-exec</text></symbol><symbol id="4"><text y="1.67" class="i">Select</text><text x="7.014" y="1.67" class="i">Cluster</text></symbol><symbol id="5"><text x="2.004" y="1.67" class="i">❯</text><text x="4.008" y="1.67" class="i">api-dev</text></symbol><symbol id="6"><text x="4.008" y="1.67" class="h">api-prod</text></symbol><symbol id="7"><text y="1.67" class="i">Select</text><text x="7.014" y="1.67" class="i">Container</text></symbol><symbol id="8"><text y="1.67" class="j">Cluster:</text><text x="9.018" y="1.67" class="j">api-prod</text></symbol><symbol id="9"><text y="1.67" class="i">Select</text><text x="7.014" y="1.67" class="i">Command</text></symbol><symbol id="10"><text y="1.67" class="j">Container:</text><text x="11.022" y="1.67" class="j">api</text><text x="15.03" y="1.67" class="j">(946514567)</text></symbol><symbol id="11"><text y="1.67" class="i">Select</text><text x="7.014" y="1.67" class="i">Ports</text></symbol><symbol id="12"><text x="2.004" y="1.67" class="h">Local</text><text x="8.016" y="1.67" class="h">Port:</text></symbol><symbol id="13"><text x="2.004" y="1.67" class="h">Target</text><text x="9.018" y="1.67" class="h">Port:</text><text x="15.03" y="1.67" class="h">3000</text></symbol><symbol id="14"><text y="1.67" class="h">Starting</text><text x="9.018" y="1.67" class="h">session</text><text x="17.034" y="1.67" class="h">with</text><text x="22.044" y="1.67" class="h">SessionId:</text><text x="33.066" y="1.67" class="h">user-0d9cb0360847abc5f</text></symbol><symbol id="15"><text y="1.67" class="h">Port</text><text x="5.01" y="1.67" class="h">3000</text><text x="10.02" y="1.67" class="h">opened</text><text x="17.034" y="1.67" class="h">for</text><text x="21.042" y="1.67" class="h">sessionId</text><text x="31.062" y="1.67" class="h">user-0d9cb0360847abc5f.</text></symbol><symbol id="16"><text y="1.67" class="h">Waiting</text><text x="8.016" y="1.67" class="h">for</text><text x="12.024" y="1.67" class="h">connections...</text></symbol><symbol id="a"><path fill="transparent" d="M0 0h80v17H0z"/></symbol><symbol id="b"><path fill="#6f7683" d="M0 0h1.102v2.171H0z"/></symbol></defs><path class="a" d="M0 0h80v34.736H0z"/><g style="animation-duration:8.693303999999998s;animation-iteration-count:infinite;animation-name:m;animation-timing-function:steps(1,end)"><svg width="3360"><svg><use xlink:href="#a"/><use xlink:href="#b" x="-.004"/></svg><svg x="80"><use xlink:href="#a"/><use xlink:href="#b" x="1.996" y="2.146"/><use xlink:href="#1"/><use xlink:href="#2" y="2.171"/></svg><svg x="160"><use xlink:href="#a"/><use xlink:href="#b" x="1.996" y="2.146"/><use xlink:href="#1"/><use xlink:href="#2" y="2.171"/></svg><svg x="240"><use xlink:href="#a"/><use xlink:href="#b" x="2.996" y="2.146"/><use xlink:href="#1"/><text y="3.841" class="g">❯</text><text x="2.004" y="3.841" class="h">e</text></svg><svg x="320"><use xlink:href="#a"/><use xlink:href="#b" x="3.996" y="2.146"/><use xlink:href="#1"/><text y="3.841" class="g">❯</text><text x="2.004" y="3.841" class="h">ec</text></svg><svg x="400"><use xlink:href="#a"/><use xlink:href="#b" x="4.996" y="2.146"/><use xlink:href="#1"/><text y="3.841" class="g">❯</text><text x="2.004" y="3.841" class="h">ecs</text></svg><svg x="480"><use xlink:href="#a"/><use xlink:href="#b" x="5.996" y="2.146"/><use xlink:href="#1"/><text y="3.841" class="g">❯</text><text x="2.004" y="3.841" class="h">ecs-</text></svg><svg x="560"><use xlink:href="#a"/><use xlink:href="#b" x="6.996" y="2.146"/><use xlink:href="#1"/><text y="3.841" class="g">❯</text><text x="2.004" y="3.841" class="h">ecs-e</text></svg><svg x="640"><use xlink:href="#a"/><use xlink:href="#b" x="7.996" y="2.146"/><use xlink:href="#1"/><text y="3.841" class="g">❯</text><text x="2.004" y="3.841" class="h">ecs-ex</text></svg><svg x="720"><use xlink:href="#a"/><use xlink:href="#b" x="8.996" y="2.146"/><use xlink:href="#1"/><text y="3.841" class="g">❯</text><text x="2.004" y="3.841" class="h">ecs-exe</text></svg><svg x="800"><use xlink:href="#a"/><use xlink:href="#b" x="9.996" y="2.146"/><use xlink:href="#1"/><use xlink:href="#3" y="2.171"/></svg><svg x="880"><use xlink:href="#a"/><use xlink:href="#b" x="-.004" y="4.317"/><use xlink:href="#1"/><use xlink:href="#3" y="2.171"/></svg><svg x="960"><use xlink:href="#a"/><use xlink:href="#1"/><use xlink:href="#3" y="2.171"/></svg><svg x="1040"><use xlink:href="#a"/><use xlink:href="#1"/><use xlink:href="#3" y="2.171"/><use xlink:href="#4" y="4.342"/><use xlink:href="#5" y="8.684"/><use xlink:href="#6" y="10.855"/></svg><svg x="1120"><use xlink:href="#a"/><use xlink:href="#1"/><use xlink:href="#3" y="2.171"/><use xlink:href="#4" y="4.342"/><use xlink:href="#5" y="8.684"/><use xlink:href="#6" y="10.855"/></svg><svg x="1200"><use xlink:href="#a"/><use xlink:href="#1"/><use xlink:href="#3" y="2.171"/><use xlink:href="#4" y="4.342"/><text x="4.008" y="10.354" class="h">api-dev</text><text x="2.004" y="12.525" class="i">❯</text><text x="4.008" y="12.525" class="i">api-prod</text></svg><svg x="1280"><use xlink:href="#a"/><use xlink:href="#1"/><use xlink:href="#3" y="2.171"/><use xlink:href="#7" y="4.342"/><text x="4.008" y="10.354" class="h">api</text><text x="8.016" y="10.354" class="h">(946514567)</text><text x="2.004" y="12.525" class="i">❯</text><text x="4.008" y="12.525" class="i">other-api</text><text x="14.028" y="12.525" class="i">(2330238302)</text><use xlink:href="#8" y="15.197"/></svg><svg x="1360"><use xlink:href="#a"/><use xlink:href="#1"/><use xlink:href="#3" y="2.171"/><use xlink:href="#7" y="4.342"/><text x="2.004" y="10.354" class="i">❯</text><text x="4.008" y="10.354" class="i">api</text><text x="8.016" y="10.354" class="i">(946514567)</text><text x="4.008" y="12.525" class="h">other-api</text><text x="14.028" y="12.525" class="h">(2330238302)</text><use xlink:href="#8" y="15.197"/></svg><svg x="1440"><use xlink:href="#a"/><use xlink:href="#1"/><use xlink:href="#3" y="2.171"/><use xlink:href="#9" y="4.342"/><text x="2.004" y="10.354" class="i">❯</text><text x="4.008" y="10.354" class="i">Shell</text><text x="4.008" y="12.525" class="h">Port</text><text x="9.018" y="12.525" class="h">Forwarding</text><use xlink:href="#8" y="15.197"/><use xlink:href="#10" y="17.368"/></svg><svg x="1520"><use xlink:href="#a"/><use xlink:href="#1"/><use xlink:href="#3" y="2.171"/><use xlink:href="#9" y="4.342"/><text x="4.008" y="10.354" class="h">Shell</text><text x="2.004" y="12.525" class="i">❯</text><text x="4.008" y="12.525" class="i">Port</text><text x="9.018" y="12.525" class="i">Forwarding</text><use xlink:href="#8" y="15.197"/><use xlink:href="#10" y="17.368"/></svg><svg x="1600"><use xlink:href="#a"/><use xlink:href="#1"/><use xlink:href="#3" y="2.171"/><use xlink:href="#11" y="4.342"/><text x="2.004" y="10.354" class="h">Target</text><text x="9.018" y="10.354" class="h">Port:</text><path class="o" d="M15.03 8.684h1v2.171h-1z"/><text x="15.03" y="10.354" class="p"></text><use xlink:href="#12" y="10.855"/><use xlink:href="#8" y="15.197"/><use xlink:href="#10" y="17.368"/></svg><svg x="1680"><use xlink:href="#a"/><use xlink:href="#1"/><use xlink:href="#3" y="2.171"/><use xlink:href="#11" y="4.342"/><text x="2.004" y="10.354" class="h">Target</text><text x="9.018" y="10.354" class="h">Port:</text><text x="15.03" y="10.354" class="h">3</text><path class="o" d="M16.032 8.684h1v2.171h-1z"/><text x="16.032" y="10.354" class="p"></text><use xlink:href="#12" y="10.855"/><use xlink:href="#8" y="15.197"/><use xlink:href="#10" y="17.368"/></svg><svg x="1760"><use xlink:href="#a"/><use xlink:href="#1"/><use xlink:href="#3" y="2.171"/><use xlink:href="#11" y="4.342"/><text x="2.004" y="10.354" class="h">Target</text><text x="9.018" y="10.354" class="h">Port:</text><text x="15.03" y="10.354" class="h">3</text><use xlink:href="#12" y="10.855"/><use xlink:href="#8" y="15.197"/><use xlink:href="#10" y="17.368"/></svg><svg x="1840"><use xlink:href="#a"/><use xlink:href="#1"/><use xlink:href="#3" y="2.171"/><use xlink:href="#11" y="4.342"/><text x="2.004" y="10.354" class="h">Target</text><text x="9.018" y="10.354" class="h">Port:</text><text x="15.03" y="10.354" class="h">30</text><path class="o" d="M17.034 8.684h1v2.171h-1z"/><text x="17.034" y="10.354" class="p"></text><use xlink:href="#12" y="10.855"/><use xlink:href="#8" y="15.197"/><use xlink:href="#10" y="17.368"/></svg><svg x="1920"><use xlink:href="#a"/><use xlink:href="#1"/><use xlink:href="#3" y="2.171"/><use xlink:href="#11" y="4.342"/><text x="2.004" y="10.354" class="h">Target</text><text x="9.018" y="10.354" class="h">Port:</text><text x="15.03" y="10.354" class="h">30</text><use xlink:href="#12" y="10.855"/><use xlink:href="#8" y="15.197"/><use xlink:href="#10" y="17.368"/></svg><svg x="2000"><use xlink:href="#a"/><use xlink:href="#1"/><use xlink:href="#3" y="2.171"/><use xlink:href="#11" y="4.342"/><text x="2.004" y="10.354" class="h">Target</text><text x="9.018" y="10.354" class="h">Port:</text><text x="15.03" y="10.354" class="h">300</text><path class="o" d="M18.036 8.684h1v2.171h-1z"/><text x="18.036" y="10.354" class="p"></text><use xlink:href="#12" y="10.855"/><use xlink:href="#8" y="15.197"/><use xlink:href="#10" y="17.368"/></svg><svg x="2080"><use xlink:href="#a"/><use xlink:href="#1"/><use xlink:href="#3" y="2.171"/><use xlink:href="#11" y="4.342"/><text x="2.004" y="10.354" class="h">Target</text><text x="9.018" y="10.354" class="h">Port:</text><text x="15.03" y="10.354" class="h">300</text><use xlink:href="#12" y="10.855"/><use xlink:href="#8" y="15.197"/><use xlink:href="#10" y="17.368"/></svg><svg x="2160"><use xlink:href="#a"/><use xlink:href="#1"/><use xlink:href="#3" y="2.171"/><use xlink:href="#11" y="4.342"/><text x="2.004" y="10.354" class="h">Target</text><text x="9.018" y="10.354" class="h">Port:</text><text x="15.03" y="10.354" class="h">3000</text><path class="o" d="M19.038 8.684h1v2.171h-1z"/><text x="19.038" y="10.354" class="p"></text><use xlink:href="#12" y="10.855"/><use xlink:href="#8" y="15.197"/><use xlink:href="#10" y="17.368"/></svg><svg x="2240"><use xlink:href="#a"/><use xlink:href="#1"/><use xlink:href="#3" y="2.171"/><use xlink:href="#11" y="4.342"/><use xlink:href="#13" y="8.684"/><text x="2.004" y="12.525" class="h">Local</text><text x="8.016" y="12.525" class="h">Port:</text><path class="o" d="M14.028 10.855h1v2.171h-1z"/><text x="14.028" y="12.525" class="p"></text><use xlink:href="#8" y="15.197"/><use xlink:href="#10" y="17.368"/></svg><svg x="2320"><use xlink:href="#a"/><use xlink:href="#1"/><use xlink:href="#3" y="2.171"/><use xlink:href="#11" y="4.342"/><use xlink:href="#13" y="8.684"/><text x="2.004" y="12.525" class="h">Local</text><text x="8.016" y="12.525" class="h">Port:</text><text x="14.028" y="12.525" class="h">3</text><path class="o" d="M15.03 10.855h1v2.171h-1z"/><text x="15.03" y="12.525" class="p"></text><use xlink:href="#8" y="15.197"/><use xlink:href="#10" y="17.368"/></svg><svg x="2400"><use xlink:href="#a"/><use xlink:href="#1"/><use xlink:href="#3" y="2.171"/><use xlink:href="#11" y="4.342"/><use xlink:href="#13" y="8.684"/><text x="2.004" y="12.525" class="h">Local</text><text x="8.016" y="12.525" class="h">Port:</text><text x="14.028" y="12.525" class="h">3</text><use xlink:href="#8" y="15.197"/><use xlink:href="#10" y="17.368"/></svg><svg x="2480"><use xlink:href="#a"/><use xlink:href="#1"/><use xlink:href="#3" y="2.171"/><use xlink:href="#11" y="4.342"/><use xlink:href="#13" y="8.684"/><text x="2.004" y="12.525" class="h">Local</text><text x="8.016" y="12.525" class="h">Port:</text><text x="14.028" y="12.525" class="h">30</text><path class="o" d="M16.032 10.855h1v2.171h-1z"/><text x="16.032" y="12.525" class="p"></text><use xlink:href="#8" y="15.197"/><use xlink:href="#10" y="17.368"/></svg><svg x="2560"><use xlink:href="#a"/><use xlink:href="#1"/><use xlink:href="#3" y="2.171"/><use xlink:href="#11" y="4.342"/><use xlink:href="#13" y="8.684"/><text x="2.004" y="12.525" class="h">Local</text><text x="8.016" y="12.525" class="h">Port:</text><text x="14.028" y="12.525" class="h">30</text><use xlink:href="#8" y="15.197"/><use xlink:href="#10" y="17.368"/></svg><svg x="2640"><use xlink:href="#a"/><use xlink:href="#1"/><use xlink:href="#3" y="2.171"/><use xlink:href="#11" y="4.342"/><use xlink:href="#13" y="8.684"/><text x="2.004" y="12.525" class="h">Local</text><text x="8.016" y="12.525" class="h">Port:</text><text x="14.028" y="12.525" class="h">300</text><path class="o" d="M17.034 10.855h1v2.171h-1z"/><text x="17.034" y="12.525" class="p"></text><use xlink:href="#8" y="15.197"/><use xlink:href="#10" y="17.368"/></svg><svg x="2720"><use xlink:href="#a"/><use xlink:href="#1"/><use xlink:href="#3" y="2.171"/><use xlink:href="#11" y="4.342"/><use xlink:href="#13" y="8.684"/><text x="2.004" y="12.525" class="h">Local</text><text x="8.016" y="12.525" class="h">Port:</text><text x="14.028" y="12.525" class="h">300</text><use xlink:href="#8" y="15.197"/><use xlink:href="#10" y="17.368"/></svg><svg x="2800"><use xlink:href="#a"/><use xlink:href="#1"/><use xlink:href="#3" y="2.171"/><use xlink:href="#11" y="4.342"/><use xlink:href="#13" y="8.684"/><text x="2.004" y="12.525" class="h">Local</text><text x="8.016" y="12.525" class="h">Port:</text><text x="14.028" y="12.525" class="h">3000</text><path class="o" d="M18.036 10.855h1v2.171h-1z"/><text x="18.036" y="12.525" class="p"></text><use xlink:href="#8" y="15.197"/><use xlink:href="#10" y="17.368"/></svg><svg x="2880"><use xlink:href="#a"/><use xlink:href="#1"/><use xlink:href="#3" y="2.171"/></svg><svg x="2960"><use xlink:href="#a"/><use xlink:href="#b" x="-.004" y="4.317"/><use xlink:href="#1"/><use xlink:href="#3" y="2.171"/></svg><svg x="3040"><use xlink:href="#a"/><use xlink:href="#b" x="-.004" y="4.317"/><use xlink:href="#1"/><use xlink:href="#3" y="2.171"/></svg><svg x="3120"><use xlink:href="#a"/><use xlink:href="#b" x="-.004" y="8.659"/><use xlink:href="#1"/><use xlink:href="#3" y="2.171"/><use xlink:href="#14" y="6.513"/></svg><svg x="3200"><use xlink:href="#a"/><use xlink:href="#b" x="-.004" y="13.001"/><use xlink:href="#1"/><use xlink:href="#3" y="2.171"/><use xlink:href="#14" y="6.513"/><use xlink:href="#15" y="8.684"/><use xlink:href="#16" y="10.855"/></svg><svg x="3280"><use xlink:href="#a"/><use xlink:href="#b" x="-.004" y="13.001"/><use xlink:href="#1"/><use xlink:href="#3" y="2.171"/><use xlink:href="#14" y="6.513"/><use xlink:href="#15" y="8.684"/><use xlink:href="#16" y="10.855"/></svg></svg></g></g></svg></svg>