<svg xmlns="http://www.w3.org/2000/svg" xmlns:xlink="http://www.w3.org/1999/xlink" width="840" height="407.36"><rect width="840" height="407.36" rx="5" ry="5" class="a"/><svg y="0%" x="0%"><circle cx="20" cy="20" r="6" fill="#ff5f58"/><circle cx="40" cy="20" r="6" fill="#ffbd2e"/><circle cx="60" cy="20" r="6" fill="#18c132"/></svg><svg height="347.36" viewBox="0 0 80 34.736" width="800" x="15" xmlns="http://www.w3.org/2000/svg" xmlns:xlink="http://www.w3.org/1999/xlink" y="50"><style>@keyframes l{0%{transform:translateX(0)}2.7%{transform:translateX(-160px)}8.9%{transform:translateX(-240px)}9.9%{transform:translateX(-320px)}11.6%{transform:translateX(-400px)}13.6%{transform:translateX(-480px)}14.9%{transform:translateX(-560px)}19.2%{transform:translateX(-640px)}20.5%{transform:translateX(-720px)}26.7%{transform:translateX(-800px)}27.6%{transform:translateX(-880px)}28.4%{transform:translateX(-960px)}33.1%{transform:translateX(-1040px)}34.4%{transform:translateX(-1120px)}35.2%{transform:translateX(-1200px)}36%{transform:translateX(-1280px)}37%{transform:translateX(-1360px)}43.2%{transform:translateX(-1440px)}44.3%{transform:translateX(-1520px)}45.6%{transform:translateX(-1600px)}51.8%{transform:translateX(-1680px)}55.7%{transform:translateX(-1760px)}56.8%{transform:translateX(-1840px)}58.1%{transform:translateX(-1920px)}58.7%{transform:translateX(-2000px)}60.5%{transform:translateX(-2080px)}63.5%{transform:translateX(-2160px)}64.6%{transform:translateX(-2240px)}67.4%{transform:translateX(-2320px)}73.6%{transform:translateX(-2480px)}75.2%{transform:translateX(-2560px)}81.4%{transform:translateX(-2640px)}87.6%{transform:translateX(-2720px)}93.8%{transform:translateX(-2800px)}to{transform:translateX(-2880px)}}.a{fill:#282d35}.g,.h{white-space:pre}.g{fill:#a8cc8c;font-weight:700}.h{fill:#b9c0cb}</style><g font-family="Monaco,Consolas,Menlo,'Bitstream Vera Sans Mono','Powerline Symbols',monospace" font-size="1.67"><defs><symbol id="1"><text y="1.67" style="white-space:pre" fill="#66c2cd" font-weight="700">project</text></symbol><symbol id="2"><text y="1.67" class="g">❯</text></symbol><symbol id="3"><text y="1.67" class="g">❯</text><text x="2.004" y="1.67" class="h">watchx</text></symbol><symbol id="4"><text y="1.67" class="g">❯</text><text x="2.004" y="1.67" class="h">watchx</text><text x="9.018" y="1.67" class="h">-f</text></symbol><symbol id="5"><text y="1.67" class="g">❯</text><text x="2.004" y="1.67" class="h">watchx</text><text x="9.018" y="1.67" class="h">-f</text><text x="12.024" y="1.67" class="h">test</text></symbol><symbol id="6"><text y="1.67" class="g">❯</text><text x="2.004" y="1.67" class="h">watchx</text><text x="9.018" y="1.67" class="h">-f</text><text x="12.024" y="1.67" class="h">test</text><text x="17.034" y="1.67" class="h">-x</text></symbol><symbol id="7"><text y="1.67" class="g">❯</text><text x="2.004" y="1.67" class="h">watchx</text><text x="9.018" y="1.67" class="h">-f</text><text x="12.024" y="1.67" class="h">test</text><text x="17.034" y="1.67" class="h">-x</text><text x="20.04" y="1.67" class="h">&quot;echo</text></symbol><symbol id="8"><text y="1.67" class="g">❯</text><text x="2.004" y="1.67" class="h">watchx</text><text x="9.018" y="1.67" class="h">-f</text><text x="12.024" y="1.67" class="h">test</text><text x="17.034" y="1.67" class="h">-x</text><text x="20.04" y="1.67" class="h">&quot;echo</text><text x="26.052" y="1.67" class="h">{}&quot;</text></symbol><symbol id="9"><text y="1.67" style="white-space:pre" fill="#71bef2">[watchx]</text><text x="9.018" y="1.67" class="h">Watching</text><text x="18.036" y="1.67" class="h">test</text></symbol><symbol id="10"><text y="1.67" class="h">/home/tim/workspaces/github.com/tggreene/handy/modules/watchx/test</text></symbol><symbol id="a"><path fill="transparent" d="M0 0h80v17H0z"/></symbol><symbol id="b"><path fill="#6f7683" d="M0 0h1.102v2.171H0z"/></symbol></defs><path class="a" d="M0 0h80v34.736H0z"/><g style="animation-duration:8.048416s;animation-iteration-count:infinite;animation-name:l;animation-timing-function:steps(1,end)"><svg width="2960"><svg><use xlink:href="#a"/><use xlink:href="#b" x="-.004"/></svg><svg x="80"><use xlink:href="#a"/><use xlink:href="#b" x="1.996" y="2.146"/><use xlink:href="#1"/><use xlink:href="#2" y="2.171"/></svg><svg x="160"><use xlink:href="#a"/><use xlink:href="#b" x="1.996" y="2.146"/><use xlink:href="#1"/><use xlink:href="#2" y="2.171"/></svg><svg x="240"><use xlink:href="#a"/><use xlink:href="#b" x="2.996" y="2.146"/><use xlink:href="#1"/><text y="3.841" class="g">❯</text><text x="2.004" y="3.841" class="h">w</text></svg><svg x="320"><use xlink:href="#a"/><use xlink:href="#b" x="3.996" y="2.146"/><use xlink:href="#1"/><text y="3.841" class="g">❯</text><text x="2.004" y="3.841" class="h">wa</text></svg><svg x="400"><use xlink:href="#a"/><use xlink:href="#b" x="4.996" y="2.146"/><use xlink:href="#1"/><text y="3.841" class="g">❯</text><text x="2.004" y="3.841" class="h">wat</text></svg><svg x="480"><use xlink:href="#a"/><use xlink:href="#b" x="5.996" y="2.146"/><use xlink:href="#1"/><text y="3.841" class="g">❯</text><text x="2.004" y="3.841" class="h">watc</text></svg><svg x="560"><use xlink:href="#a"/><use xlink:href="#b" x="6.996" y="2.146"/><use xlink:href="#1"/><text y="3.841" class="g">❯</text><text x="2.004" y="3.841" class="h">watch</text></svg><svg x="640"><use xlink:href="#a"/><use xlink:href="#b" x="7.996" y="2.146"/><use xlink:href="#1"/><use xlink:href="#3" y="2.171"/></svg><svg x="720"><use xlink:href="#a"/><use xlink:href="#b" x="8.996" y="2.146"/><use xlink:href="#1"/><use xlink:href="#3" y="2.171"/></svg><svg x="800"><use xlink:href="#a"/><use xlink:href="#b" x="9.996" y="2.146"/><use xlink:href="#1"/><text y="3.841" class="g">❯</text><text x="2.004" y="3.841" class="h">watchx</text><text x="9.018" y="3.841" class="h">-</text></svg><svg x="880"><use xlink:href="#a"/><use xlink:href="#b" x="10.996" y="2.146"/><use xlink:href="#1"/><use xlink:href="#4" y="2.171"/></svg><svg x="960"><use xlink:href="#a"/><use xlink:href="#b" x="11.996" y="2.146"/><use xlink:href="#1"/><use xlink:href="#4" y="2.171"/></svg><svg x="1040"><use xlink:href="#a"/><use xlink:href="#b" x="12.996" y="2.146"/><use xlink:href="#1"/><text y="3.841" class="g">❯</text><text x="2.004" y="3.841" class="h">watchx</text><text x="9.018" y="3.841" class="h">-f</text><text x="12.024" y="3.841" class="h">t</text></svg><svg x="1120"><use xlink:href="#a"/><use xlink:href="#b" x="13.996" y="2.146"/><use xlink:href="#1"/><text y="3.841" class="g">❯</text><text x="2.004" y="3.841" class="h">watchx</text><text x="9.018" y="3.841" class="h">-f</text><text x="12.024" y="3.841" class="h">te</text></svg><svg x="1200"><use xlink:href="#a"/><use xlink:href="#b" x="14.996" y="2.146"/><use xlink:href="#1"/><text y="3.841" class="g">❯</text><text x="2.004" y="3.841" class="h">watchx</text><text x="9.018" y="3.841" class="h">-f</text><text x="12.024" y="3.841" class="h">tes</text></svg><svg x="1280"><use xlink:href="#a"/><use xlink:href="#b" x="15.996" y="2.146"/><use xlink:href="#1"/><use xlink:href="#5" y="2.171"/></svg><svg x="1360"><use xlink:href="#a"/><use xlink:href="#b" x="16.996" y="2.146"/><use xlink:href="#1"/><use xlink:href="#5" y="2.171"/></svg><svg x="1440"><use xlink:href="#a"/><use xlink:href="#b" x="17.996" y="2.146"/><use xlink:href="#1"/><text y="3.841" class="g">❯</text><text x="2.004" y="3.841" class="h">watchx</text><text x="9.018" y="3.841" class="h">-f</text><text x="12.024" y="3.841" class="h">test</text><text x="17.034" y="3.841" class="h">-</text></svg><svg x="1520"><use xlink:href="#a"/><use xlink:href="#b" x="18.996" y="2.146"/><use xlink:href="#1"/><use xlink:href="#6" y="2.171"/></svg><svg x="1600"><use xlink:href="#a"/><use xlink:href="#b" x="19.996" y="2.146"/><use xlink:href="#1"/><use xlink:href="#6" y="2.171"/></svg><svg x="1680"><use xlink:href="#a"/><use xlink:href="#b" x="20.996" y="2.146"/><use xlink:href="#1"/><text y="3.841" class="g">❯</text><text x="2.004" y="3.841" class="h">watchx</text><text x="9.018" y="3.841" class="h">-f</text><text x="12.024" y="3.841" class="h">test</text><text x="17.034" y="3.841" class="h">-x</text><text x="20.04" y="3.841" class="h">&quot;</text></svg><svg x="1760"><use xlink:href="#a"/><use xlink:href="#b" x="21.996" y="2.146"/><use xlink:href="#1"/><text y="3.841" class="g">❯</text><text x="2.004" y="3.841" class="h">watchx</text><text x="9.018" y="3.841" class="h">-f</text><text x="12.024" y="3.841" class="h">test</text><text x="17.034" y="3.841" class="h">-x</text><text x="20.04" y="3.841" class="h">&quot;e</text></svg><svg x="1840"><use xlink:href="#a"/><use xlink:href="#b" x="22.996" y="2.146"/><use xlink:href="#1"/><text y="3.841" class="g">❯</text><text x="2.004" y="3.841" class="h">watchx</text><text x="9.018" y="3.841" class="h">-f</text><text x="12.024" y="3.841" class="h">test</text><text x="17.034" y="3.841" class="h">-x</text><text x="20.04" y="3.841" class="h">&quot;ec</text></svg><svg x="1920"><use xlink:href="#a"/><use xlink:href="#b" x="23.996" y="2.146"/><use xlink:href="#1"/><text y="3.841" class="g">❯</text><text x="2.004" y="3.841" class="h">watchx</text><text x="9.018" y="3.841" class="h">-f</text><text x="12.024" y="3.841" class="h">test</text><text x="17.034" y="3.841" class="h">-x</text><text x="20.04" y="3.841" class="h">&quot;ech</text></svg><svg x="2000"><use xlink:href="#a"/><use xlink:href="#b" x="24.996" y="2.146"/><use xlink:href="#1"/><use xlink:href="#7" y="2.171"/></svg><svg x="2080"><use xlink:href="#a"/><use xlink:href="#b" x="25.996" y="2.146"/><use xlink:href="#1"/><use xlink:href="#7" y="2.171"/></svg><svg x="2160"><use xlink:href="#a"/><use xlink:href="#b" x="26.996" y="2.146"/><use xlink:href="#1"/><text y="3.841" class="g">❯</text><text x="2.004" y="3.841" class="h">watchx</text><text x="9.018" y="3.841" class="h">-f</text><text x="12.024" y="3.841" class="h">test</text><text x="17.034" y="3.841" class="h">-x</text><text x="20.04" y="3.841" class="h">&quot;echo</text><text x="26.052" y="3.841" class="h">{</text></svg><svg x="2240"><use xlink:href="#a"/><use xlink:href="#b" x="27.996" y="2.146"/><use xlink:href="#1"/><text y="3.841" class="g">❯</text><text x="2.004" y="3.841" class="h">watchx</text><text x="9.018" y="3.841" class="h">-f</text><text x="12.024" y="3.841" class="h">test</text><text x="17.034" y="3.841" class="h">-x</text><text x="20.04" y="3.841" class="h">&quot;echo</text><text x="26.052" y="3.841" class="h">{}</text></svg><svg x="2320"><use xlink:href="#a"/><use xlink:href="#b" x="28.996" y="2.146"/><use xlink:href="#1"/><use xlink:href="#8" y="2.171"/></svg><svg x="2400"><use xlink:href="#a"/><use xlink:href="#b" x="28.996" y="2.146"/><use xlink:href="#1"/><use xlink:href="#8" y="2.171"/></svg><svg x="2480"><use xlink:href="#a"/><use xlink:href="#b" x="-.004" y="4.317"/><use xlink:href="#1"/><use xlink:href="#8" y="2.171"/></svg><svg x="2560"><use xlink:href="#a"/><use xlink:href="#b" x="-.004" y="6.488"/><use xlink:href="#1"/><use xlink:href="#8" y="2.171"/><use xlink:href="#9" y="4.342"/></svg><svg x="2640"><use xlink:href="#a"/><use xlink:href="#b" x="-.004" y="8.659"/><use xlink:href="#1"/><use xlink:href="#8" y="2.171"/><use xlink:href="#9" y="4.342"/><use xlink:href="#10" y="6.513"/></svg><svg x="2720"><use xlink:href="#a"/><use xlink:href="#b" x="-.004" y="10.83"/><use xlink:href="#1"/><use xlink:href="#8" y="2.171"/><use xlink:href="#9" y="4.342"/><use xlink:href="#10" y="6.513"/><use xlink:href="#10" y="8.684"/></svg><svg x="2800"><use xlink:href="#a"/><use xlink:href="#b" x="-.004" y="13.001"/><use xlink:href="#1"/><use xlink:href="#8" y="2.171"/><use xlink:href="#9" y="4.342"/><use xlink:href="#10" y="6.513"/><use xlink:href="#10" y="8.684"/><use xlink:href="#10" y="10.855"/></svg><svg x="2880"><use xlink:href="#a"/><use xlink:href="#b" x="-.004" y="15.172"/><use xlink:href="#1"/><use xlink:href="#8" y="2.171"/><use xlink:href="#9" y="4.342"/><use xlink:href="#10" y="6.513"/><use xlink:href="#10" y="8.684"/><use xlink:href="#10" y="10.855"/></svg></svg></g></g></svg></svg>