<svg xmlns="http://www.w3.org/2000/svg" xmlns:xlink="http://www.w3.org/1999/xlink" width="840" height="407.36"><rect width="840" height="407.36" rx="5" ry="5" class="a"/><svg y="0%" x="0%"><circle cx="20" cy="20" r="6" fill="#ff5f58"/><circle cx="40" cy="20" r="6" fill="#ffbd2e"/><circle cx="60" cy="20" r="6" fill="#18c132"/></svg><svg height="347.36" viewBox="0 0 80 34.736" width="800" x="15" xmlns="http://www.w3.org/2000/svg" xmlns:xlink="http://www.w3.org/1999/xlink" y="50"><style>@keyframes q{0%{transform:translateX(0)}2.5%{transform:translateX(-160px)}8.3%{transform:translateX(-240px)}9.2%{transform:translateX(-320px)}10.8%{transform:translateX(-400px)}12.7%{transform:translateX(-480px)}13.9%{transform:translateX(-560px)}17.9%{transform:translateX(-640px)}19.1%{transform:translateX(-720px)}24.8%{transform:translateX(-800px)}25.6%{transform:translateX(-880px)}26.4%{transform:translateX(-960px)}30.7%{transform:translateX(-1040px)}32%{transform:translateX(-1120px)}32.7%{transform:translateX(-1200px)}33.5%{transform:translateX(-1280px)}34.4%{transform:translateX(-1360px)}40.1%{transform:translateX(-1440px)}41.1%{transform:translateX(-1520px)}42.4%{transform:translateX(-1600px)}48.1%{transform:translateX(-1680px)}51.7%{transform:translateX(-1760px)}52.8%{transform:translateX(-1840px)}54%{transform:translateX(-1920px)}54.5%{transform:translateX(-2000px)}56.2%{transform:translateX(-2080px)}59%{transform:translateX(-2160px)}60.1%{transform:translateX(-2240px)}62.7%{transform:translateX(-2320px)}68.4%{transform:translateX(-2480px)}69.9%{transform:translateX(-2560px)}75.6%{transform:translateX(-2640px)}81.4%{transform:translateX(-2720px)}87.2%{transform:translateX(-2800px)}93%{transform:translateX(-2960px)}93.1%{transform:translateX(-3040px)}94.2%{transform:translateX(-3280px)}to{transform:translateX(-3360px)}}.a{fill:#282d35}.f,.g,.h{white-space:pre}.f{fill:#66c2cd;font-weight:700}.g,.h{fill:#b9c0cb}.h{fill:#d290e4}.h,.i{font-weight:700}.i,.j,.k{fill:#e88388;white-space:pre}.k{fill:#a8cc8c;font-weight:700}</style><g font-family="Monaco,Consolas,Menlo,'Bitstream Vera Sans Mono','Powerline Symbols',monospace" font-size="1.67"><defs><symbol id="1"><text y="1.67" class="f">handy/modules/watchx</text><text x="21.042" y="1.67" class="g">on</text><text x="24.048" y="1.67" class="h"></text><text x="26.052" y="1.67" class="h">cli-matic</text><text x="36.072" y="1.67" class="i">[!?]</text><text x="41.082" y="1.67" class="g">via</text><text x="45.09" y="1.67" class="j">☕</text><text x="47.094" y="1.67" class="j">v11.0.10</text></symbol><symbol id="2"><text y="1.67" class="k">❯</text></symbol><symbol id="3"><text y="1.67" class="k">❯</text><text x="2.004" y="1.67" class="g">watchx</text></symbol><symbol id="4"><text y="1.67" class="k">❯</text><text x="2.004" y="1.67" class="g">watchx</text><text x="9.018" y="1.67" class="g">-f</text></symbol><symbol id="5"><text y="1.67" class="k">❯</text><text x="2.004" y="1.67" class="g">watchx</text><text x="9.018" y="1.67" class="g">-f</text><text x="12.024" y="1.67" class="g">test</text></symbol><symbol id="6"><text y="1.67" class="k">❯</text><text x="2.004" y="1.67" class="g">watchx</text><text x="9.018" y="1.67" class="g">-f</text><text x="12.024" y="1.67" class="g">test</text><text x="17.034" y="1.67" class="g">-x</text></symbol><symbol id="7"><text y="1.67" class="k">❯</text><text x="2.004" y="1.67" class="g">watchx</text><text x="9.018" y="1.67" class="g">-f</text><text x="12.024" y="1.67" class="g">test</text><text x="17.034" y="1.67" class="g">-x</text><text x="20.04" y="1.67" class="g">&quot;echo</text></symbol><symbol id="8"><text y="1.67" class="k">❯</text><text x="2.004" y="1.67" class="g">watchx</text><text x="9.018" y="1.67" class="g">-f</text><text x="12.024" y="1.67" class="g">test</text><text x="17.034" y="1.67" class="g">-x</text><text x="20.04" y="1.67" class="g">&quot;echo</text><text x="26.052" y="1.67" class="g">{}&quot;</text></symbol><symbol id="9"><text y="1.67" style="white-space:pre" fill="#71bef2">[watchx]</text><text x="9.018" y="1.67" class="g">Watching</text><text x="18.036" y="1.67" class="g">test</text></symbol><symbol id="10"><text y="1.67" class="g">/home/tim/workspaces/github.com/tggreene/handy/modules/watchx/test</text></symbol><symbol id="11"><text y="1.67" class="g">^C</text><text x="2.004" y="1.67" style="white-space:pre" fill="#b9c0cb" font-weight="700">%</text></symbol><symbol id="12"><text y="1.67" class="f">handy/modules/watchx</text><text x="21.042" y="1.67" class="g">on</text><text x="24.048" y="1.67" class="h"></text><text x="26.052" y="1.67" class="h">cli-matic</text><text x="36.072" y="1.67" class="i">[!?]</text><text x="41.082" y="1.67" class="g">via</text><text x="45.09" y="1.67" class="j">☕</text><text x="47.094" y="1.67" class="j">v11.0.10</text><text x="56.112" y="1.67" class="g">took</text><text x="61.122" y="1.67" style="white-space:pre" fill="#dbab79" font-weight="700">6s</text></symbol><symbol id="a"><path fill="transparent" d="M0 0h80v17H0z"/></symbol><symbol id="b"><path fill="#6f7683" d="M0 0h1.102v2.171H0z"/></symbol></defs><path class="a" d="M0 0h80v34.736H0z"/><g style="animation-duration:8.658760000000001s;animation-iteration-count:infinite;animation-name:q;animation-timing-function:steps(1,end)"><svg width="3440"><svg><use xlink:href="#a"/><use xlink:href="#b" x="-.004"/></svg><svg x="80"><use xlink:href="#a"/><use xlink:href="#b" x="1.996" y="2.146"/><use xlink:href="#1"/><use xlink:href="#2" y="2.171"/></svg><svg x="160"><use xlink:href="#a"/><use xlink:href="#b" x="1.996" y="2.146"/><use xlink:href="#1"/><use xlink:href="#2" y="2.171"/></svg><svg x="240"><use xlink:href="#a"/><use xlink:href="#b" x="2.996" y="2.146"/><use xlink:href="#1"/><text y="3.841" class="k">❯</text><text x="2.004" y="3.841" class="g">w</text></svg><svg x="320"><use xlink:href="#a"/><use xlink:href="#b" x="3.996" y="2.146"/><use xlink:href="#1"/><text y="3.841" class="k">❯</text><text x="2.004" y="3.841" class="g">wa</text></svg><svg x="400"><use xlink:href="#a"/><use xlink:href="#b" x="4.996" y="2.146"/><use xlink:href="#1"/><text y="3.841" class="k">❯</text><text x="2.004" y="3.841" class="g">wat</text></svg><svg x="480"><use xlink:href="#a"/><use xlink:href="#b" x="5.996" y="2.146"/><use xlink:href="#1"/><text y="3.841" class="k">❯</text><text x="2.004" y="3.841" class="g">watc</text></svg><svg x="560"><use xlink:href="#a"/><use xlink:href="#b" x="6.996" y="2.146"/><use xlink:href="#1"/><text y="3.841" class="k">❯</text><text x="2.004" y="3.841" class="g">watch</text></svg><svg x="640"><use xlink:href="#a"/><use xlink:href="#b" x="7.996" y="2.146"/><use xlink:href="#1"/><use xlink:href="#3" y="2.171"/></svg><svg x="720"><use xlink:href="#a"/><use xlink:href="#b" x="8.996" y="2.146"/><use xlink:href="#1"/><use xlink:href="#3" y="2.171"/></svg><svg x="800"><use xlink:href="#a"/><use xlink:href="#b" x="9.996" y="2.146"/><use xlink:href="#1"/><text y="3.841" class="k">❯</text><text x="2.004" y="3.841" class="g">watchx</text><text x="9.018" y="3.841" class="g">-</text></svg><svg x="880"><use xlink:href="#a"/><use xlink:href="#b" x="10.996" y="2.146"/><use xlink:href="#1"/><use xlink:href="#4" y="2.171"/></svg><svg x="960"><use xlink:href="#a"/><use xlink:href="#b" x="11.996" y="2.146"/><use xlink:href="#1"/><use xlink:href="#4" y="2.171"/></svg><svg x="1040"><use xlink:href="#a"/><use xlink:href="#b" x="12.996" y="2.146"/><use xlink:href="#1"/><text y="3.841" class="k">❯</text><text x="2.004" y="3.841" class="g">watchx</text><text x="9.018" y="3.841" class="g">-f</text><text x="12.024" y="3.841" class="g">t</text></svg><svg x="1120"><use xlink:href="#a"/><use xlink:href="#b" x="13.996" y="2.146"/><use xlink:href="#1"/><text y="3.841" class="k">❯</text><text x="2.004" y="3.841" class="g">watchx</text><text x="9.018" y="3.841" class="g">-f</text><text x="12.024" y="3.841" class="g">te</text></svg><svg x="1200"><use xlink:href="#a"/><use xlink:href="#b" x="14.996" y="2.146"/><use xlink:href="#1"/><text y="3.841" class="k">❯</text><text x="2.004" y="3.841" class="g">watchx</text><text x="9.018" y="3.841" class="g">-f</text><text x="12.024" y="3.841" class="g">tes</text></svg><svg x="1280"><use xlink:href="#a"/><use xlink:href="#b" x="15.996" y="2.146"/><use xlink:href="#1"/><use xlink:href="#5" y="2.171"/></svg><svg x="1360"><use xlink:href="#a"/><use xlink:href="#b" x="16.996" y="2.146"/><use xlink:href="#1"/><use xlink:href="#5" y="2.171"/></svg><svg x="1440"><use xlink:href="#a"/><use xlink:href="#b" x="17.996" y="2.146"/><use xlink:href="#1"/><text y="3.841" class="k">❯</text><text x="2.004" y="3.841" class="g">watchx</text><text x="9.018" y="3.841" class="g">-f</text><text x="12.024" y="3.841" class="g">test</text><text x="17.034" y="3.841" class="g">-</text></svg><svg x="1520"><use xlink:href="#a"/><use xlink:href="#b" x="18.996" y="2.146"/><use xlink:href="#1"/><use xlink:href="#6" y="2.171"/></svg><svg x="1600"><use xlink:href="#a"/><use xlink:href="#b" x="19.996" y="2.146"/><use xlink:href="#1"/><use xlink:href="#6" y="2.171"/></svg><svg x="1680"><use xlink:href="#a"/><use xlink:href="#b" x="20.996" y="2.146"/><use xlink:href="#1"/><text y="3.841" class="k">❯</text><text x="2.004" y="3.841" class="g">watchx</text><text x="9.018" y="3.841" class="g">-f</text><text x="12.024" y="3.841" class="g">test</text><text x="17.034" y="3.841" class="g">-x</text><text x="20.04" y="3.841" class="g">&quot;</text></svg><svg x="1760"><use xlink:href="#a"/><use xlink:href="#b" x="21.996" y="2.146"/><use xlink:href="#1"/><text y="3.841" class="k">❯</text><text x="2.004" y="3.841" class="g">watchx</text><text x="9.018" y="3.841" class="g">-f</text><text x="12.024" y="3.841" class="g">test</text><text x="17.034" y="3.841" class="g">-x</text><text x="20.04" y="3.841" class="g">&quot;e</text></svg><svg x="1840"><use xlink:href="#a"/><use xlink:href="#b" x="22.996" y="2.146"/><use xlink:href="#1"/><text y="3.841" class="k">❯</text><text x="2.004" y="3.841" class="g">watchx</text><text x="9.018" y="3.841" class="g">-f</text><text x="12.024" y="3.841" class="g">test</text><text x="17.034" y="3.841" class="g">-x</text><text x="20.04" y="3.841" class="g">&quot;ec</text></svg><svg x="1920"><use xlink:href="#a"/><use xlink:href="#b" x="23.996" y="2.146"/><use xlink:href="#1"/><text y="3.841" class="k">❯</text><text x="2.004" y="3.841" class="g">watchx</text><text x="9.018" y="3.841" class="g">-f</text><text x="12.024" y="3.841" class="g">test</text><text x="17.034" y="3.841" class="g">-x</text><text x="20.04" y="3.841" class="g">&quot;ech</text></svg><svg x="2000"><use xlink:href="#a"/><use xlink:href="#b" x="24.996" y="2.146"/><use xlink:href="#1"/><use xlink:href="#7" y="2.171"/></svg><svg x="2080"><use xlink:href="#a"/><use xlink:href="#b" x="25.996" y="2.146"/><use xlink:href="#1"/><use xlink:href="#7" y="2.171"/></svg><svg x="2160"><use xlink:href="#a"/><use xlink:href="#b" x="26.996" y="2.146"/><use xlink:href="#1"/><text y="3.841" class="k">❯</text><text x="2.004" y="3.841" class="g">watchx</text><text x="9.018" y="3.841" class="g">-f</text><text x="12.024" y="3.841" class="g">test</text><text x="17.034" y="3.841" class="g">-x</text><text x="20.04" y="3.841" class="g">&quot;echo</text><text x="26.052" y="3.841" class="g">{</text></svg><svg x="2240"><use xlink:href="#a"/><use xlink:href="#b" x="27.996" y="2.146"/><use xlink:href="#1"/><text y="3.841" class="k">❯</text><text x="2.004" y="3.841" class="g">watchx</text><text x="9.018" y="3.841" class="g">-f</text><text x="12.024" y="3.841" class="g">test</text><text x="17.034" y="3.841" class="g">-x</text><text x="20.04" y="3.841" class="g">&quot;echo</text><text x="26.052" y="3.841" class="g">{}</text></svg><svg x="2320"><use xlink:href="#a"/><use xlink:href="#b" x="28.996" y="2.146"/><use xlink:href="#1"/><use xlink:href="#8" y="2.171"/></svg><svg x="2400"><use xlink:href="#a"/><use xlink:href="#b" x="28.996" y="2.146"/><use xlink:href="#1"/><use xlink:href="#8" y="2.171"/></svg><svg x="2480"><use xlink:href="#a"/><use xlink:href="#b" x="-.004" y="4.317"/><use xlink:href="#1"/><use xlink:href="#8" y="2.171"/></svg><svg x="2560"><use xlink:href="#a"/><use xlink:href="#b" x="-.004" y="6.488"/><use xlink:href="#1"/><use xlink:href="#8" y="2.171"/><use xlink:href="#9" y="4.342"/></svg><svg x="2640"><use xlink:href="#a"/><use xlink:href="#b" x="-.004" y="8.659"/><use xlink:href="#1"/><use xlink:href="#8" y="2.171"/><use xlink:href="#9" y="4.342"/><use xlink:href="#10" y="6.513"/></svg><svg x="2720"><use xlink:href="#a"/><use xlink:href="#b" x="-.004" y="10.83"/><use xlink:href="#1"/><use xlink:href="#8" y="2.171"/><use xlink:href="#9" y="4.342"/><use xlink:href="#10" y="6.513"/><use xlink:href="#10" y="8.684"/></svg><svg x="2800"><use xlink:href="#a"/><use xlink:href="#b" x="-.004" y="13.001"/><use xlink:href="#1"/><use xlink:href="#8" y="2.171"/><use xlink:href="#9" y="4.342"/><use xlink:href="#10" y="6.513"/><use xlink:href="#10" y="8.684"/><use xlink:href="#10" y="10.855"/></svg><svg x="2880"><use xlink:href="#a"/><use xlink:href="#b" x="1.996" y="13.001"/><use xlink:href="#1"/><use xlink:href="#8" y="2.171"/><use xlink:href="#9" y="4.342"/><use xlink:href="#10" y="6.513"/><use xlink:href="#10" y="8.684"/><use xlink:href="#10" y="10.855"/><text y="14.696" class="g">^C</text></svg><svg x="2960"><use xlink:href="#a"/><use xlink:href="#b" x="-.004" y="15.172"/><use xlink:href="#1"/><use xlink:href="#8" y="2.171"/><use xlink:href="#9" y="4.342"/><use xlink:href="#10" y="6.513"/><use xlink:href="#10" y="8.684"/><use xlink:href="#10" y="10.855"/><use xlink:href="#11" y="13.026"/></svg><svg x="3040"><use xlink:href="#a"/><use xlink:href="#b" x="14.996" y="15.172"/><use xlink:href="#1"/><use xlink:href="#8" y="2.171"/><use xlink:href="#9" y="4.342"/><use xlink:href="#10" y="6.513"/><use xlink:href="#10" y="8.684"/><use xlink:href="#10" y="10.855"/><use xlink:href="#11" y="13.026"/><text y="16.867" class="g">..odules/watchx</text></svg><svg x="3120"><use xlink:href="#a"/><use xlink:href="#b" x="1.996" y="19.514"/><use xlink:href="#1"/><use xlink:href="#8" y="2.171"/><use xlink:href="#9" y="4.342"/><use xlink:href="#10" y="6.513"/><use xlink:href="#10" y="8.684"/><use xlink:href="#10" y="10.855"/><use xlink:href="#11" y="13.026"/><use xlink:href="#12" y="17.368"/><use xlink:href="#2" y="19.539"/></svg><svg x="3200"><use xlink:href="#a"/><use xlink:href="#b" x="1.996" y="19.514"/><use xlink:href="#1"/><use xlink:href="#8" y="2.171"/><use xlink:href="#9" y="4.342"/><use xlink:href="#10" y="6.513"/><use xlink:href="#10" y="8.684"/><use xlink:href="#10" y="10.855"/><use xlink:href="#11" y="13.026"/><use xlink:href="#12" y="17.368"/><use xlink:href="#2" y="19.539"/></svg><svg x="3280"><use xlink:href="#a"/><use xlink:href="#b" x="1.996" y="19.514"/><use xlink:href="#1"/><use xlink:href="#8" y="2.171"/><use xlink:href="#9" y="4.342"/><use xlink:href="#10" y="6.513"/><use xlink:href="#10" y="8.684"/><use xlink:href="#10" y="10.855"/><use xlink:href="#11" y="13.026"/><use xlink:href="#12" y="17.368"/><use xlink:href="#2" y="19.539"/></svg><svg x="3360"><use xlink:href="#a"/><use xlink:href="#b" x="-.004" y="21.685"/><use xlink:href="#1"/><use xlink:href="#8" y="2.171"/><use xlink:href="#9" y="4.342"/><use xlink:href="#10" y="6.513"/><use xlink:href="#10" y="8.684"/><use xlink:href="#10" y="10.855"/><use xlink:href="#11" y="13.026"/><use xlink:href="#12" y="17.368"/><use xlink:href="#2" y="19.539"/></svg></svg></g></g></svg></svg>